<?xml version="1.0" encoding="UTF-8" standalone="no"?>
<svg
   xmlns:dc="http://purl.org/dc/elements/1.1/"
   xmlns:cc="http://creativecommons.org/ns#"
   xmlns:rdf="http://www.w3.org/1999/02/22-rdf-syntax-ns#"
   xmlns:svg="http://www.w3.org/2000/svg"
   xmlns="http://www.w3.org/2000/svg"
   width="18"
   height="20"
   viewBox="0 0 18 20"
   version="1.1"
   xml:space="preserve"
   style="clip-rule:evenodd;fill-rule:evenodd;stroke-linecap:round"
   id="svg125"><metadata
     id="metadata131"><rdf:RDF><cc:Work
         rdf:about=""><dc:format>image/svg+xml</dc:format><dc:type
           rdf:resource="http://purl.org/dc/dcmitype/StillImage" /><dc:title></dc:title></cc:Work></rdf:RDF></metadata><defs
     id="defs129" /><g
     id="g22271"
     transform="matrix(0.31586334,0,0,0.31538414,-1.6957537,-1.6562959)"><path
       id="path21118"
       d="m 29.2,15.34 v -3.262 c 0,-2.789 2.054,-5.035 4.605,-5.035 2.551,0 4.605,2.246 4.605,5.035 v 3.262"
       style="fill:none;fill-rule:nonzero;stroke:#0573e1;stroke-width:3.42px" /><path
       id="path21120"
       d="m 40.992,58.715 c 0.048,0.338 0.072,0.68 0.072,1.022 0,3.982 -3.277,7.259 -7.259,7.259 -3.982,0 -7.259,-3.277 -7.259,-7.259 0,-0.342 0.024,-0.684 0.072,-1.022"
       style="fill:none;fill-rule:nonzero;stroke:#0573e1;stroke-width:3.42px" /><path
       id="path21122"
       d="m 33.805,14.783 c -10.094,0 -18.221,7.751 -18.221,17.379 -0.247,11.83 0.824,19.613 -8.168,24.914 -0.205,0.12 -0.373,0.407 -0.373,0.645 v 1.003 h 53.524 v -1.003 c 0,-0.238 -0.168,-0.525 -0.373,-0.645 -8.992,-5.301 -7.921,-13.085 -8.168,-24.914 0,-9.628 -8.127,-17.379 -18.221,-17.379 z"
       style="fill:none;fill-rule:nonzero;stroke:#4d4d4d;stroke-width:3.42px" /><path
       id="path21124"
       d="m 22.002,30.627 c 0,-5.15 4.238,-9.388 9.388,-9.388"
       style="fill:none;fill-rule:nonzero;stroke:#0573e1;stroke-width:2.85px" /></g></svg>
