<?xml version="1.0" encoding="UTF-8" standalone="no"?><!DOCTYPE svg PUBLIC "-//W3C//DTD SVG 1.1//EN" "http://www.w3.org/Graphics/SVG/1.1/DTD/svg11.dtd"><svg width="100%" height="100%" viewBox="0 0 68 75" version="1.1" xmlns="http://www.w3.org/2000/svg" xmlns:xlink="http://www.w3.org/1999/xlink" xml:space="preserve" xmlns:serif="http://www.serif.com/" style="fill-rule:evenodd;clip-rule:evenodd;stroke-linecap:round;"><g id="g22271"><path id="path21118" d="M29.2,15.34l-0,-3.262c-0,-2.789 2.054,-5.035 4.605,-5.035c2.551,0 4.605,2.246 4.605,5.035l-0,3.262" style="fill:none;fill-rule:nonzero;stroke:#0573e1;stroke-width:3.42px;"/><path id="path21120" d="M40.992,58.715c0.048,0.338 0.072,0.68 0.072,1.022c0,3.982 -3.277,7.259 -7.259,7.259c-3.982,0 -7.259,-3.277 -7.259,-7.259c-0,-0.342 0.024,-0.684 0.072,-1.022" style="fill:none;fill-rule:nonzero;stroke:#0573e1;stroke-width:3.42px;"/><path id="path21122" d="M33.805,14.783c-10.094,0 -18.221,7.751 -18.221,17.379c-0.247,11.83 0.824,19.613 -8.168,24.914c-0.205,0.12 -0.373,0.407 -0.373,0.645l0,1.003l53.524,-0l-0,-1.003c-0,-0.238 -0.168,-0.525 -0.373,-0.645c-8.992,-5.301 -7.921,-13.085 -8.168,-24.914c-0,-9.628 -8.127,-17.379 -18.221,-17.379Z" style="fill:none;fill-rule:nonzero;stroke:#4d4d4d;stroke-width:3.42px;"/><path id="path21124" d="M22.002,30.627c0,-5.15 4.238,-9.388 9.388,-9.388" style="fill:none;fill-rule:nonzero;stroke:#0573e1;stroke-width:2.85px;"/></g></svg>