<?xml version="1.0" encoding="UTF-8" standalone="no"?><!DOCTYPE svg PUBLIC "-//W3C//DTD SVG 1.1//EN" "http://www.w3.org/Graphics/SVG/1.1/DTD/svg11.dtd"><svg width="100%" height="100%" viewBox="0 0 14 15" version="1.1" xmlns="http://www.w3.org/2000/svg" xmlns:xlink="http://www.w3.org/1999/xlink" xml:space="preserve" xmlns:serif="http://www.serif.com/" style="fill-rule:evenodd;clip-rule:evenodd;stroke-linecap:round;"><g id="g22271"><path id="path21118" d="M5.889,3.094l-0,-0.658c-0,-0.563 0.414,-1.016 0.928,-1.016c0.515,0 0.929,0.453 0.929,1.016l0,0.658" style="fill:none;fill-rule:nonzero;stroke:#0573e1;stroke-width:0.69px;"/><path id="path21120" d="M8.267,11.841c0.01,0.068 0.014,0.137 0.014,0.206c0,0.803 -0.66,1.464 -1.464,1.464c-0.803,0 -1.463,-0.661 -1.463,-1.464c-0,-0.069 0.004,-0.138 0.014,-0.206" style="fill:none;fill-rule:nonzero;stroke:#0573e1;stroke-width:0.69px;"/><path id="path21122" d="M6.817,2.981c-2.035,0 -3.674,1.563 -3.674,3.505c-0.05,2.386 0.166,3.956 -1.647,5.025c-0.042,0.024 -0.076,0.082 -0.076,0.13l0,0.202l10.795,-0l-0,-0.202c-0,-0.048 -0.034,-0.106 -0.076,-0.13c-1.813,-1.069 -1.597,-2.639 -1.647,-5.025c0,-1.942 -1.639,-3.505 -3.675,-3.505Z" style="fill:none;fill-rule:nonzero;stroke:#4d4d4d;stroke-width:0.69px;"/><path id="path21124" d="M4.437,6.177c0,-1.039 0.855,-1.894 1.894,-1.894" style="fill:none;fill-rule:nonzero;stroke:#0573e1;stroke-width:0.57px;"/></g></svg>