<?xml version="1.0" encoding="UTF-8" standalone="no"?>
<!DOCTYPE svg PUBLIC "-//W3C//DTD SVG 1.1//EN" "http://www.w3.org/Graphics/SVG/1.1/DTD/svg11.dtd">
<svg width="100%" height="100%" viewBox="0 0 147 161" version="1.1" xmlns="http://www.w3.org/2000/svg" xmlns:xlink="http://www.w3.org/1999/xlink" xml:space="preserve" xmlns:serif="http://www.serif.com/" style="fill-rule:evenodd;clip-rule:evenodd;stroke-linecap:round;">
    <g transform="matrix(1,0,0,1,-412.569,-403.901)">
        <g id="g22271" transform="matrix(0.246999,0,0,0.246999,54.6224,362.258)">
            <path id="path21118" d="M1705.59,303.297L1705.59,274.652C1705.59,250.16 1723.63,230.443 1746.03,230.443C1768.43,230.443 1786.47,250.16 1786.47,274.652L1786.47,303.297" style="fill:none;fill-rule:nonzero;stroke:rgb(5,115,225);stroke-width:30px;"/>
            <path id="path21120" d="M1809.14,684.18C1809.56,687.154 1809.77,690.154 1809.77,693.157C1809.77,728.126 1781,756.901 1746.03,756.901C1711.06,756.901 1682.29,728.126 1682.29,693.157C1682.29,690.154 1682.5,687.153 1682.92,684.179" style="fill:none;fill-rule:nonzero;stroke:rgb(5,115,225);stroke-width:30px;"/>
            <path id="path21122" d="M1746.03,298.41C1657.39,298.41 1586.03,366.471 1586.03,451.015C1583.86,554.894 1593.27,623.241 1514.3,669.788C1512.5,670.847 1511.03,673.367 1511.03,675.455L1511.03,684.257L1981.03,684.257L1981.03,675.455C1981.03,673.367 1979.55,670.847 1977.76,669.787C1898.79,623.239 1908.2,554.893 1906.03,451.015C1906.03,366.471 1834.67,298.41 1746.03,298.41Z" style="fill:none;fill-rule:nonzero;stroke:rgb(77,77,77);stroke-width:30px;"/>
            <path id="path21124" d="M1642.39,437.538C1642.39,392.314 1679.6,355.1 1724.83,355.1" style="fill:none;fill-rule:nonzero;stroke:rgb(5,115,225);stroke-width:25px;"/>
        </g>
    </g>
</svg>
